PathFileType  4	(X/Y/Z) C:\Users\antoi\Documents\MyRepositories\mobilecap\ResultsAnalysis
DataRate	CameraRate	NumFrames	NumMarkers	Units	OrigDataRate	OrigDataStartFrame	OrigNumFrames
100.0	100.0	6	51	mm	100.0	855	1139
Frame#	Time	r_knee			r_shank_antsup			r_ankle			r_calc			r_5meta			r_toe			L_knee			L_shank_antsup			L_ankle			L_calc			L_5meta			L_toe			r_sh2			r_sh3			r_sh4			L_sh2			L_sh3			r_thigh1			r_thigh2			r_thigh3			r_thigh4			r_thigh5			L_thigh1			L_thigh2			L_thigh3			L_thigh4			r.ASIS			r.PSIS			L.ASIS			L.PSIS			C7			R_Shoulder			L_Shoulder			R_Sternum			L_Sternum			R_humerus			R_elbow_med			R_elbow_lat			R_forearm			R_wrist_radius			R_wrist_ulna			L_humerus			L_elbow_med			L_elbow_lat			L_forearm			L_wrist_radius			L_wrist_ulna			R_HJC			L_HJC			R_HJC_reg			L_HJC_reg			
		X1	Y1	Z1	X2	Y2	Z2	X3	Y3	Z3	X4	Y4	Z4	X5	Y5	Z5	X6	Y6	Z6	X7	Y7	Z7	X8	Y8	Z8	X9	Y9	Z9	X10	Y10	Z10	X11	Y11	Z11	X12	Y12	Z12	X13	Y13	Z13	X14	Y14	Z14	X15	Y15	Z15	X16	Y16	Z16	X17	Y17	Z17	X18	Y18	Z18	X19	Y19	Z19	X20	Y20	Z20	X21	Y21	Z21	X22	Y22	Z22	X23	Y23	Z23	X24	Y24	Z24	X25	Y25	Z25	X26	Y26	Z26	X27	Y27	Z27	X28	Y28	Z28	X29	Y29	Z29	X30	Y30	Z30	X31	Y31	Z31	X32	Y32	Z32	X33	Y33	Z33	X34	Y34	Z34	X35	Y35	Z35	X36	Y36	Z36	X37	Y37	Z37	X38	Y38	Z38	X39	Y39	Z39	X40	Y40	Z40	X41	Y41	Z41	X42	Y42	Z42	X43	Y43	Z43	X44	Y44	Z44	X45	Y45	Z45	X46	Y46	Z46	X47	Y47	Z47	X48	Y48	Z48	X49	Y49	Z49	X50	Y50	Z50	X51	Y51	Z51	

855	8.54000000	-245.20666	585.05127	-373.24350	-194.07189	453.63275	-349.31822	-304.26416	105.76036	-309.47653	-360.19481	70.26608	-371.25789	-173.92686	48.22144	-264.04175	-133.85853	78.14119	-311.69093	-243.27784	576.38367	-879.57449	-184.75686	393.22666	-892.68524	-317.32947	114.58926	-932.21598	-378.68594	72.41294	-877.88119	-181.61957	40.58803	-977.44054	-139.09384	71.03183	-919.97377	-211.21848	341.10757	-341.24084	-262.74989	463.26100	-321.31941	-282.43488	354.70612	-301.78671	-253.24970	421.97512	-940.84318	-283.93704	306.40638	-941.84563	-524.02577	660.07136	-404.54913	-413.34846	661.95605	-384.69855	-394.55500	598.92680	-367.49022	-526.12266	546.41117	-407.96905	-408.29434	546.65988	-387.58807	-514.78359	682.85438	-828.60595	-382.55383	673.21982	-852.82915	-535.38110	579.66189	-859.70279	-399.82063	572.72461	-892.44242	-581.34096	701.13207	-487.96515	-763.12750	735.83084	-588.72617	-583.07467	688.25663	-760.29638	-759.76896	737.24660	-678.93190	-460.23389	1137.96114	-635.58367	-396.92513	1083.22941	-479.55783	-399.67377	1097.49170	-793.43385	-358.66385	1006.71992	-610.45572	-357.33090	1004.37757	-657.96957	-314.58732	877.46191	-371.56028	-328.64048	719.05397	-358.12806	-311.86505	775.41261	-287.77061	-169.66114	869.52392	-412.50632	-115.43526	911.47110	-471.22150	-92.29103	886.96013	-452.01361	-277.34531	873.80702	-857.15647	-310.82190	738.36223	-862.58937	-262.51224	784.26692	-919.13507	-134.11923	879.37499	-791.12587	-99.87151	918.44806	-736.88625	-78.04727	896.79424	-753.33577	-664.68714	608.33285	-525.93856	-665.94967	603.24038	-723.34514	-655.36688	611.48689	-530.80980	-648.67300	614.30982	-710.60618	
856	8.55000000	-247.86190	585.67446	-372.68869	-196.27094	454.41431	-348.60063	-304.53823	105.90231	-309.35257	-360.41184	70.67772	-371.22346	-174.00819	48.38886	-263.97358	-133.97810	78.29732	-311.70827	-246.25865	577.41434	-880.62319	-186.81833	394.44741	-893.49320	-317.56728	114.79385	-932.45948	-378.66747	72.70934	-877.88129	-181.65543	40.36032	-977.47190	-139.10776	70.93637	-920.13920	-212.88538	341.85278	-340.58773	-265.02055	463.67730	-320.73916	-284.00396	354.89366	-301.62983	-255.46091	422.53556	-941.48337	-285.42354	306.83468	-942.51907	-525.71560	657.59277	-404.59808	-415.87724	662.39982	-384.22953	-396.86862	599.37264	-366.82651	-528.15698	546.26286	-407.53231	-410.37536	547.02268	-386.97650	-517.53689	682.79088	-828.60709	-385.32493	673.68838	-853.20975	-537.88805	579.68816	-860.25103	-402.36559	573.21957	-892.98942	-586.74965	700.49229	-487.64793	-769.33318	732.86121	-588.62855	-588.60016	688.82805	-759.99866	-766.01088	734.65494	-678.48625	-470.78707	1139.86032	-635.90253	-407.60282	1084.65268	-479.02507	-411.16908	1098.94277	-794.27250	-368.19853	1008.51025	-610.53588	-366.86448	1006.49219	-658.21624	-326.27002	877.39896	-372.15594	-340.59385	719.16120	-359.19949	-323.93198	774.80711	-289.08947	-180.96932	869.35767	-412.34979	-126.17312	911.36397	-470.69056	-103.29380	886.74399	-451.41039	-289.02140	874.67598	-857.59925	-322.25949	739.32774	-863.11289	-273.98491	785.17848	-919.25652	-146.09871	880.58120	-791.15534	-112.13891	919.50058	-736.62382	-90.12069	898.09178	-753.16584	-668.84380	606.61533	-526.10453	-670.04790	602.33661	-723.53041	-659.58477	610.02002	-530.82931	-652.93907	613.60883	-710.59080	
857	8.56000000	-250.72393	586.44226	-372.07402	-198.69911	455.28241	-347.85559	-304.93203	106.11987	-309.04825	-360.64127	71.09873	-371.30373	-174.08491	48.62441	-263.81000	-134.06655	78.45798	-311.63408	-249.46250	578.62685	-881.78576	-189.12661	395.69671	-894.34405	-317.83006	115.03014	-932.77846	-378.67432	73.08166	-877.89637	-181.72110	40.09068	-977.54562	-139.14017	70.82984	-920.33636	-214.66931	342.53080	-339.96843	-267.50432	464.21666	-320.04772	-285.70993	355.14990	-301.19980	-257.99686	423.00677	-942.12939	-287.08513	307.17445	-943.32380	-527.21116	656.78712	-404.49488	-418.07892	663.17250	-384.04393	-399.27518	600.25778	-366.24153	-530.46939	547.08101	-407.01005	-412.72240	548.03271	-386.23156	-520.24921	683.55317	-828.77626	-388.08320	674.61772	-853.85536	-540.64705	580.61870	-860.75713	-405.19049	574.11696	-893.77968	-592.47538	701.37416	-487.22450	-774.92373	731.61523	-588.29178	-594.08185	690.23645	-760.07226	-771.83258	733.60886	-678.10203	-480.49231	1142.77044	-636.31337	-417.56376	1086.67716	-478.22853	-421.96462	1101.04258	-795.18192	-377.04505	1011.42806	-610.50444	-375.94874	1009.34578	-658.39105	-337.95835	877.76106	-372.63526	-352.91687	719.52343	-360.35736	-336.08727	774.23104	-290.72888	-192.17601	869.25061	-412.27755	-136.69718	911.25988	-470.15838	-114.16587	886.47181	-450.81044	-300.87316	875.96132	-858.26642	-334.30531	740.73706	-863.42615	-285.91707	786.33963	-919.34654	-158.20929	881.78174	-791.20146	-124.40133	920.54365	-736.44863	-102.28996	899.31977	-753.18834	-673.14314	606.51540	-526.06553	-674.33371	602.64320	-723.50063	-663.88645	609.98193	-530.48553	-657.68794	613.97894	-710.56712	
858	8.57000000	-253.64676	587.32066	-371.38342	-201.21778	456.16288	-347.16014	-305.35630	106.30031	-308.76248	-360.88301	71.45499	-371.35079	-174.17578	48.80976	-263.80115	-134.22123	78.74510	-311.61143	-252.85385	579.81293	-883.03281	-191.54552	396.85977	-895.17589	-318.21527	115.23816	-933.14064	-378.77223	73.40687	-877.98695	-181.79268	39.99251	-977.54608	-139.19693	70.87867	-920.44794	-216.44179	343.17695	-339.42538	-270.16664	464.68461	-319.26972	-287.75485	355.47728	-300.69509	-260.63075	423.59372	-943.10595	-288.79730	307.48670	-944.05112	-529.20850	658.24111	-404.34776	-420.52782	664.48462	-383.79167	-401.90420	601.49265	-365.63932	-532.95822	548.43836	-406.64591	-415.30946	549.28911	-385.59636	-523.11161	684.77312	-828.93698	-391.09574	675.81160	-854.59124	-543.71252	582.14333	-861.32609	-408.35473	575.31775	-894.59643	-597.90445	703.51239	-487.04858	-780.24479	731.56865	-587.98246	-599.34345	692.10164	-759.93589	-777.36556	733.48085	-677.66690	-489.78318	1146.40387	-636.74875	-426.91589	1089.23502	-477.30157	-432.05188	1103.89375	-796.10031	-385.38446	1015.57391	-610.44321	-384.65271	1013.26331	-658.61151	-349.56041	878.57917	-373.07772	-365.59026	720.37481	-362.13587	-348.65040	774.44249	-292.14300	-203.29177	869.11599	-412.16885	-147.19847	911.07178	-469.70385	-124.88892	886.14460	-450.18816	-312.87858	877.60744	-859.14628	-346.89926	742.52785	-863.56846	-298.19772	787.83510	-919.57808	-170.38304	882.89603	-791.25940	-136.54922	921.49670	-736.32125	-114.46019	900.38830	-753.37190	-677.25866	607.68203	-525.71811	-678.52777	603.62846	-723.14875	-668.03219	611.31652	-530.05795	-662.24923	615.15676	-710.18989	
859	8.58000000	-256.50930	588.14050	-370.71853	-203.63641	456.98257	-346.54963	-305.73975	106.41501	-308.53758	-361.08341	71.66129	-371.36095	-174.42250	48.42479	-264.53899	-134.48441	79.00176	-311.89284	-256.38301	580.84692	-884.42381	-193.98964	398.02273	-896.13727	-318.77029	115.35101	-933.38083	-378.98231	73.59025	-878.05606	-181.91835	40.14773	-977.43630	-139.34726	71.21106	-920.49525	-218.18891	343.89931	-338.93278	-272.70546	464.95915	-318.51722	-289.79470	355.83760	-300.19269	-263.19205	424.21335	-944.41333	-290.44442	307.81235	-944.71766	-531.67929	659.96908	-404.38079	-423.57798	666.32319	-383.27994	-404.70617	602.81942	-364.93536	-535.53472	549.87160	-406.76135	-418.01769	550.50056	-385.11567	-526.16613	686.07272	-829.21458	-394.37658	677.03106	-855.55374	-547.04680	583.60945	-861.88158	-411.81292	576.51941	-895.35752	-602.85382	706.13864	-487.16192	-785.38546	732.04498	-587.74000	-604.36517	694.08015	-759.54435	-782.66138	733.72879	-677.15049	-499.05560	1150.43708	-637.01013	-435.84241	1092.39420	-476.28684	-441.56128	1107.45501	-796.94291	-393.71827	1020.35678	-610.38221	-392.84749	1018.16462	-658.58431	-360.98260	879.83770	-373.48587	-378.46636	721.76381	-364.46904	-361.58021	775.38741	-293.32652	-214.30100	868.95337	-411.96924	-157.58763	910.85533	-469.06327	-135.47425	885.73531	-449.52363	-324.95213	879.50251	-860.08256	-359.91059	744.67736	-863.54438	-310.82853	789.43049	-919.56817	-182.56288	883.92993	-791.43086	-148.51024	922.29539	-736.31747	-126.54905	901.16285	-753.53666	-681.10737	609.38359	-525.22032	-682.56903	604.84863	-722.63910	-671.95525	613.32765	-529.73126	-666.47619	616.71445	-709.56736	
860	8.59000000	-259.30193	588.80325	-370.10555	-205.86487	457.69557	-346.07606	-306.04776	106.52265	-308.22302	-361.27601	71.69509	-371.36595	-174.82097	47.68337	-265.77017	-134.78865	79.14386	-312.39019	-259.97596	581.70814	-885.83328	-196.45452	399.25629	-897.32480	-319.43239	115.43633	-933.43937	-379.26089	73.60354	-877.93361	-182.13668	40.45934	-977.31619	-139.63987	71.73030	-920.52816	-219.91302	344.70053	-338.50821	-274.82584	465.22407	-317.76065	-291.51141	356.19501	-299.58063	-265.72203	424.67852	-945.80475	-292.12680	308.06579	-945.38973	-534.31335	661.22270	-404.20392	-426.53883	667.92196	-382.54022	-407.43277	603.82494	-364.23360	-538.28025	551.38289	-406.96578	-420.75736	551.56197	-384.62343	-529.32506	687.22244	-829.91026	-397.71441	678.02044	-856.88998	-550.43264	584.59093	-862.26821	-415.34743	577.34876	-896.12663	-607.72918	708.64938	-487.23331	-790.21626	732.58323	-587.50126	-609.16420	695.99863	-759.34628	-787.66912	734.06848	-676.78860	-508.58347	1154.61685	-636.91719	-444.40873	1096.00228	-475.37429	-450.75991	1111.48871	-797.48780	-402.31715	1025.23730	-610.28632	-400.60107	1023.19211	-657.60960	-372.20328	881.45630	-373.77899	-391.39623	723.50859	-366.90330	-374.41967	776.29583	-294.67830	-225.18459	868.88323	-411.76006	-167.63562	910.68153	-468.21652	-145.92279	885.22395	-448.85667	-337.00896	881.65407	-860.96230	-373.29823	747.26433	-863.33060	-323.81929	791.19633	-919.38955	-194.69366	884.89554	-791.73654	-160.24338	922.96178	-736.58577	-138.47196	901.60066	-753.68023	-684.87058	611.05058	-524.82562	-686.46493	606.08883	-722.23342	-675.76023	615.21835	-529.41129	-670.63379	618.20768	-709.10432	
